<svg width="22" height="23" viewBox="0 0 22 23" fill="none" xmlns="http://www.w3.org/2000/svg">
<path id="Vector" d="M10.7531 0.163696H11.2257L11.4943 0.217407L11.6984 0.28186L11.924 0.37854L12.1066 0.485962L12.2355 0.582642L12.3536 0.679321L12.5363 0.851196L21.3986 9.7135L21.4738 9.79944L21.6027 9.94983L21.7208 10.1324L21.8068 10.2936L21.8712 10.4547L21.9357 10.6588L21.9894 10.9166L22.0001 10.9918V11.3463L21.9464 11.6256L21.8605 11.9049L21.7638 12.1198L21.6456 12.3131L21.5382 12.4528L21.42 12.5817L21.3234 12.6783L21.2052 12.775L21.0118 12.9039L20.8077 13.0114L20.6144 13.0865L20.3566 13.151L20.2169 13.1725L19.8302 13.194H19.6368L19.6476 13.2477L19.6368 19.9293L19.6154 20.1549L19.5724 20.3698L19.4972 20.6168L19.379 20.8854L19.2501 21.1002L19.132 21.2614L19.0031 21.4117L18.8527 21.5621L18.7345 21.6588L18.6163 21.7448L18.4445 21.8522L18.2833 21.9381L18.0792 22.024L17.8214 22.0992L17.5099 22.1637H13.6427L13.4816 22.0992L13.3741 22.0348L13.2667 21.9381L13.17 21.7877L13.1271 21.6588L13.1163 21.6051L13.1056 16.2985L13.0841 16.1158L13.0304 15.9332L12.923 15.7291L12.8263 15.611L12.7296 15.5143L12.5685 15.4069L12.3859 15.3209L12.2032 15.278L12.1066 15.2672H9.88293L9.67883 15.2994L9.50696 15.3639L9.35657 15.4498L9.24915 15.5358L9.19543 15.5895L9.09875 15.6969L9.01282 15.8365L8.95911 15.9547L8.91614 16.0836L8.89465 16.2125L8.88391 21.5084L8.86243 21.6803L8.80872 21.8199L8.73352 21.9274L8.67981 21.9918L8.57239 22.067L8.46497 22.1207L8.33606 22.1637H4.5011L4.0929 22.0778L3.83508 21.9918L3.54504 21.8522L3.39465 21.7555L3.21204 21.6158L3.08313 21.4977L2.93274 21.3473L2.81458 21.1969L2.73938 21.0895L2.6427 20.9283L2.55676 20.7565L2.47083 20.5309L2.40637 20.3053L2.3634 20.026L2.35266 19.8864V13.194L1.89075 13.1832L1.63293 13.151L1.45032 13.108L1.23547 13.0328L1.0636 12.9469L0.913208 12.861L0.741333 12.7321L0.612427 12.6139L0.48352 12.485L0.376099 12.3453L0.268677 12.1842L0.182739 12.0123L0.0968018 11.7975L0.0323486 11.5504L0.00012207 11.4V10.9166L0.0753174 10.5944L0.150513 10.3795L0.23645 10.2076L0.322388 10.0573L0.42981 9.90686L0.526489 9.79944L0.537231 9.77795H0.558716L0.5802 9.73499L9.60364 0.711548L9.68958 0.636353L9.82922 0.528931L10.0118 0.410767L10.2374 0.303345L10.506 0.217407L10.7531 0.163696Z" fill="#FB8527"/>
</svg>
