<svg width="22" height="23" viewBox="0 0 22 23" fill="none" xmlns="http://www.w3.org/2000/svg">
<path id="Vector" d="M10.7529 0.163574H11.2256L11.4941 0.217285L11.6982 0.281738L11.9238 0.378418L12.1064 0.48584L12.2354 0.58252L12.3535 0.679199L12.5361 0.851074L21.3984 9.71338L21.4736 9.79932L21.6025 9.94971L21.7207 10.1323L21.8066 10.2935L21.8711 10.4546L21.9355 10.6587L21.9893 10.9165L22 10.9917V11.3462L21.9463 11.6255L21.8604 11.9048L21.7637 12.1196L21.6455 12.313L21.5381 12.4526L21.4199 12.5815L21.3232 12.6782L21.2051 12.7749L21.0117 12.9038L20.8076 13.0112L20.6143 13.0864L20.3564 13.1509L20.2168 13.1724L19.8301 13.1938H19.6367L19.6475 13.2476L19.6367 19.9292L19.6152 20.1548L19.5723 20.3696L19.4971 20.6167L19.3789 20.8853L19.25 21.1001L19.1318 21.2612L19.0029 21.4116L18.8525 21.562L18.7344 21.6587L18.6162 21.7446L18.4443 21.8521L18.2832 21.938L18.0791 22.0239L17.8213 22.0991L17.5098 22.1636H13.6426L13.4814 22.0991L13.374 22.0347L13.2666 21.938L13.1699 21.7876L13.127 21.6587L13.1162 21.605L13.1055 16.2983L13.084 16.1157L13.0303 15.9331L12.9229 15.729L12.8262 15.6108L12.7295 15.5142L12.5684 15.4067L12.3857 15.3208L12.2031 15.2778L12.1064 15.2671H9.88281L9.67871 15.2993L9.50684 15.3638L9.35645 15.4497L9.24902 15.5356L9.19531 15.5894L9.09863 15.6968L9.0127 15.8364L8.95898 15.9546L8.91602 16.0835L8.89453 16.2124L8.88379 21.5083L8.8623 21.6802L8.80859 21.8198L8.7334 21.9272L8.67969 21.9917L8.57227 22.0669L8.46484 22.1206L8.33594 22.1636H4.50098L4.09277 22.0776L3.83496 21.9917L3.54492 21.8521L3.39453 21.7554L3.21191 21.6157L3.08301 21.4976L2.93262 21.3472L2.81445 21.1968L2.73926 21.0894L2.64258 20.9282L2.55664 20.7563L2.4707 20.5308L2.40625 20.3052L2.36328 20.0259L2.35254 19.8862V13.1938L1.89062 13.1831L1.63281 13.1509L1.4502 13.1079L1.23535 13.0327L1.06348 12.9468L0.913086 12.8608L0.741211 12.7319L0.612305 12.6138L0.483398 12.4849L0.375977 12.3452L0.268555 12.1841L0.182617 12.0122L0.0966797 11.7974L0.0322266 11.5503L0 11.3999V10.9165L0.0751953 10.5942L0.150391 10.3794L0.236328 10.2075L0.322266 10.0571L0.429687 9.90674L0.526367 9.79932L0.537109 9.77783H0.558594L0.580078 9.73486L9.60352 0.711426L9.68945 0.63623L9.8291 0.528809L10.0117 0.410645L10.2373 0.303223L10.5059 0.217285L10.7529 0.163574Z" fill="white"/>
</svg>
