<svg width="22" height="23" viewBox="0 0 22 23" fill="none" xmlns="http://www.w3.org/2000/svg">
<g id="2m9akoaj7HvCVvxKSmEPIllclwy 1">
<path id="Vector" d="M9.0127 10.2505H12.998L13.3203 10.272L13.5996 10.3149L13.9219 10.4009L14.2012 10.5083L14.4697 10.6372L14.7168 10.7876L14.9424 10.9595L15.0498 11.0562L15.1357 11.1313L15.3076 11.3032L15.3828 11.3892L15.5332 11.5825L15.6836 11.8188L15.7588 11.9478L15.8877 12.2271L15.9736 12.4634L16.0488 12.7534L16.0918 13.0005L16.1133 13.2476V19.9507L16.0811 20.0796L16.0166 20.2085L15.9307 20.3159L15.8018 20.4126L15.6299 20.4771L15.5439 20.4878L14.9639 20.4985H7.27246L6.42383 20.4878L6.28418 20.4556L6.14453 20.3804L6.02637 20.2729L5.95117 20.1548L5.9082 20.0581L5.87598 19.8862V13.3657L5.89746 13.0542L5.95117 12.7319L6.02637 12.4634L6.12305 12.1948L6.25195 11.9263L6.38086 11.7114L6.49902 11.5396L6.61719 11.3892L6.74609 11.2495L6.83203 11.1528H6.85352V11.1313L6.93945 11.0562L7.08984 10.9272L7.2832 10.7876L7.42285 10.7017L7.59473 10.605L7.8418 10.4868L8.11035 10.3901L8.40039 10.3149L8.66895 10.272L9.0127 10.2505Z" fill="#FB8527"/>
<path id="Vector_2" d="M10.9033 1.82861H11.0859L11.3975 1.8501L11.6982 1.89307L11.9883 1.95752L12.2676 2.04346L12.5361 2.15088L12.8047 2.27979L13.041 2.41943L13.2129 2.5376L13.3955 2.67725L13.4922 2.75244V2.77393L13.5352 2.79541L13.707 2.95654L13.7822 3.03174L13.8574 3.11768L13.9863 3.26807L14.1152 3.43994L14.2227 3.60107L14.3193 3.76221L14.4482 4.00928L14.5449 4.22412L14.6523 4.5249L14.7383 4.86865L14.792 5.19092L14.8135 5.43799V5.79248L14.7812 6.1792L14.7168 6.52295L14.6631 6.72705L14.5771 6.98486L14.4912 7.19971L14.3301 7.52197L14.2334 7.68311L14.1045 7.86572L13.9971 8.01611L13.9004 8.12354L13.8252 8.20947L13.707 8.33838L13.5889 8.45654L13.4707 8.55322L13.374 8.63916L13.2666 8.7251L13.0195 8.88623L12.8799 8.97217L12.6973 9.06885L12.4395 9.18701L12.1064 9.30518L11.8057 9.38037L11.5049 9.43408L11.1289 9.46631H10.8389L10.4736 9.43408L10.0332 9.34814L9.64648 9.21924L9.48535 9.15479L9.17383 9.00439L9.02344 8.91846L8.7334 8.7251L8.61523 8.62842L8.4541 8.48877L8.34668 8.39209L8.20703 8.25244L8.13184 8.1665L8.03516 8.05908L7.90625 7.88721L7.78809 7.71533L7.71289 7.59717L7.60547 7.40381L7.4873 7.15674L7.36914 6.83447L7.30469 6.63037L7.21875 6.21143L7.18652 5.84619L7.17578 5.58838L7.19727 5.23389L7.26172 4.84717L7.33691 4.55713L7.41211 4.33154L7.50879 4.09521L7.62695 3.84814L7.75586 3.6333L7.83105 3.51514L7.98145 3.31104L8.06738 3.20361L8.18555 3.07471L8.26074 2.98877L8.41113 2.83838L8.49707 2.76318L8.63672 2.64502L8.83008 2.50537L9.0127 2.38721L9.2168 2.26904L9.52832 2.11865L9.89355 1.98975L10.2373 1.90381L10.5811 1.8501L10.9033 1.82861Z" fill="#FB8527"/>
<path id="Vector_3" d="M17.123 11.9048H18.8955L19.207 11.9263L19.4756 11.9692L19.7656 12.0444L20.0342 12.1411L20.3457 12.2915L20.5605 12.4204L20.7109 12.5278L20.8613 12.646L21.001 12.7749L21.1084 12.8716L21.1836 12.9575L21.2803 13.0649L21.4092 13.2368L21.5166 13.3979L21.6348 13.6021L21.7529 13.8491L21.8604 14.1499L21.9355 14.4399L22 14.8159V18.7261L21.9463 19.0269L21.8711 19.2632L21.8174 19.3921L21.71 19.5962L21.6133 19.7358L21.4736 19.897L21.4199 19.9614L21.2695 20.0796L21.1621 20.1655L20.9902 20.2622L20.8184 20.3481L20.5498 20.4341L20.3779 20.4663L20.1631 20.4878L19.7656 20.4985H18.3154L17.2842 20.4878L17.2734 20.4663L17.3057 20.3804L17.3486 20.1978L17.3701 20.0151L17.3809 19.854V13.4087L17.3594 13.0005L17.3057 12.6138L17.2305 12.2808L17.1338 11.9585L17.123 11.9048Z" fill="#FB8527"/>
<path id="Vector_4" d="M3.11523 11.9048H4.86621L4.85547 11.98L4.75879 12.313L4.68359 12.646L4.64062 12.9468L4.61914 13.2798V19.9185L4.64062 20.1548L4.68359 20.3589L4.71582 20.4878L3.1582 20.4985H2.36328L1.82617 20.4878L1.52539 20.4556L1.26758 20.3804L1.10645 20.3159L0.902344 20.2085L0.751953 20.1011L0.601562 19.9722L0.494141 19.8647L0.397461 19.7466L0.300781 19.6177L0.161133 19.3599L0.0644531 19.0698L0.0214844 18.8872L0 18.7153V14.7622L0.0859375 14.3325L0.161133 14.0747L0.236328 13.8706L0.311523 13.7095L0.397461 13.5376L0.494141 13.3765L0.612305 13.2046L0.730469 13.0542L0.827148 12.9468L0.902344 12.8608L1.00977 12.7534L1.0957 12.6782L1.25684 12.5493L1.43945 12.4204L1.6543 12.2915L1.82617 12.2056L1.9873 12.1304L2.30957 12.0229L2.57812 11.9585L2.80371 11.9263L3.11523 11.9048Z" fill="#FB8527"/>
<path id="Vector_5" d="M17.499 5.39502H17.9072L18.1865 5.42725L18.4336 5.48096L18.6484 5.54541L18.8633 5.63135L19.0352 5.71729L19.2285 5.82471L19.3789 5.93213L19.5186 6.03955L19.7334 6.23291L19.8838 6.39404L20.0234 6.57666L20.1523 6.77002L20.2598 6.96338L20.3779 7.23193L20.4531 7.45752L20.5176 7.72607L20.5498 7.9624L20.5605 8.10205V8.42432L20.5176 8.76807L20.4531 9.03662L20.3779 9.26221L20.2705 9.50928L20.1738 9.69189L20.0771 9.84229L19.9697 9.99268L19.8516 10.1323L19.7334 10.2612L19.6475 10.3472L19.5615 10.4224L19.4111 10.5405L19.3037 10.6157L19.1104 10.7339L18.8848 10.8521L18.6055 10.9595L18.3799 11.0239L18.0791 11.0776L17.875 11.0991H17.5098L17.3164 11.0776L17.123 11.0454L16.8652 10.981L16.5752 10.8735L16.3066 10.7339L16.1562 10.6479L15.9844 10.519L15.8125 10.3794L15.7158 10.2935L15.6406 10.2075L15.5547 10.1216L15.4795 10.0356L15.3613 9.87451L15.2109 9.63818L15.125 9.47705L15.0176 9.21924L14.9316 8.9292L14.8779 8.66064L14.8457 8.32764V8.15576L14.8672 7.89795L14.9102 7.65088L14.9746 7.39307L15.0713 7.13525L15.2002 6.8667L15.3184 6.67334L15.4688 6.46924L15.5977 6.31885L15.8232 6.09326L15.9736 5.9751L16.1348 5.85693L16.3496 5.72803L16.6182 5.59912L16.8652 5.51318L17.1123 5.44873L17.3809 5.40576L17.499 5.39502Z" fill="#FB8527"/>
<path id="Vector_6" d="M4.08203 5.39502H4.49023L4.76953 5.42725L5.0166 5.48096L5.26367 5.55615L5.52148 5.66357L5.72559 5.771L5.9834 5.94287L6.13379 6.06104L6.1875 6.104V6.12549L6.23047 6.14697L6.42383 6.34033L6.52051 6.4585L6.62793 6.59814L6.77832 6.83447L6.86426 6.99561L6.96094 7.22119L7.04688 7.479L7.10059 7.71533L7.13281 7.93018L7.14355 8.04834V8.43506L7.11133 8.71436L7.05762 8.97217L6.93945 9.32666L6.78906 9.63818L6.6709 9.8208L6.55273 9.99268L6.42383 10.1431L6.32715 10.2397L6.25195 10.3257L6.15527 10.4116L6.01562 10.519L5.84375 10.6479L5.54297 10.8091L5.37109 10.895L5.04883 11.0024L4.74805 11.0669L4.45801 11.0991H4.09277L3.82422 11.0669L3.60938 11.0239L3.38379 10.9595L3.11523 10.8521L2.87891 10.7339L2.6748 10.605L2.49219 10.4653L2.37402 10.3579L2.28809 10.2827L2.20215 10.1968L2.12695 10.1108L1.9873 9.93896L1.8584 9.74561L1.76172 9.57373L1.64355 9.32666L1.52539 8.97217L1.47168 8.71436L1.43945 8.46729V8.0376L1.47168 7.77979L1.52539 7.52197L1.60059 7.28564L1.69727 7.04932L1.7832 6.87744L1.91211 6.6626L2.04102 6.49072L2.1377 6.37256L2.28809 6.21143L2.36328 6.13623L2.44922 6.06104L2.64258 5.91064L2.84668 5.78174L2.99707 5.6958L3.20117 5.59912L3.52344 5.4917L3.81348 5.42725L4.08203 5.39502Z" fill="#FB8527"/>
</g>
</svg>
