<svg width="22" height="23" viewBox="0 0 22 23" fill="none" xmlns="http://www.w3.org/2000/svg">
<g id="2m9agNdrDK4m9bP3rpuKUKwXxet 1">
<path id="Vector" d="M6.7998 4.73975H15.1787L15.2754 4.76123L15.3828 4.81494L15.4688 4.89014L15.5332 4.98682L15.5762 5.10498L15.5869 5.15869V11.1528H21.5381L21.6885 11.1743L21.8066 11.2388L21.8926 11.314L21.957 11.4106L22 11.5181V19.0913H21.9785L21.957 19.1665L21.8711 19.2847L21.7852 19.3491L21.6885 19.3921L21.5918 19.4136H0.386719L0.24707 19.3706L0.161133 19.3062L0.0751953 19.2202L0 19.0806V10.5835L0.0859375 10.4224L0.150391 10.3472L0.268555 10.272L0.375977 10.2397H6.40234V5.23389L6.42383 5.09424L6.4668 4.97607L6.55273 4.86865L6.64941 4.79346L6.74609 4.75049L6.7998 4.73975ZM11.376 7.50049L11.2471 7.54346L11.1504 7.61865L11.0967 7.66162V7.68311L11.0537 7.70459V7.72607L11.0215 7.73682L10.9463 7.82275L10.1836 8.58545L10.1299 8.67139L10.0977 8.76807L10.0869 8.83252V8.91846L10.1084 9.01514L10.1621 9.12256L10.2588 9.22998L10.4092 9.30518L10.4521 9.31592H10.6348L10.7744 9.26221L10.8926 9.16553L10.9785 9.06885L11 9.05811V12.4956L11.0215 12.6675L11.0645 12.7642L11.1074 12.8286L11.1826 12.9038L11.3115 12.9683L11.4189 12.9897H11.5049L11.6338 12.9575L11.7412 12.8931L11.8271 12.8071L11.8916 12.6782L11.9131 12.5386V7.93018L11.8809 7.77979L11.8164 7.67236L11.7734 7.61865L11.6768 7.5542L11.5801 7.51123L11.5371 7.50049H11.376ZM3.5127 12.0874L3.33008 12.1196L3.10449 12.1948L2.91113 12.3022L2.73926 12.4419L2.62109 12.5601L2.50293 12.7212L2.40625 12.9038L2.33105 13.1294L2.29883 13.3228V13.5269L2.33105 13.6343L2.39551 13.7417L2.50293 13.8384L2.63184 13.8921L2.68555 13.9028H2.80371L2.92188 13.8706L3.01855 13.8169L3.09375 13.7524L3.16895 13.6343L3.20117 13.4839L3.2334 13.3013L3.29785 13.1724L3.38379 13.0864L3.53418 13.0112L3.59863 13.0005H3.73828L3.8457 13.0327L3.95312 13.0972L4.02832 13.1724L4.08203 13.269L4.11426 13.355V13.645L4.08203 13.8276L4.02832 14.0317L3.9209 14.2788L3.81348 14.4507L3.7168 14.5796L3.56641 14.7407L2.40625 15.9009L2.3418 15.9976L2.30957 16.0835L2.29883 16.1265V16.2769L2.33105 16.3843L2.39551 16.4917L2.4707 16.5669L2.58887 16.6313L2.68555 16.6528H4.64062L4.75879 16.6206L4.85547 16.5669L4.91992 16.5132L4.99512 16.395L5.02734 16.3091L5.03809 16.1802L5.0166 16.062L4.95215 15.9331L4.89844 15.8687L4.80176 15.8042L4.70508 15.7612L4.61914 15.7505L3.86719 15.7397L3.94238 15.6538L4.33984 15.2563L4.43652 15.1382L4.52246 15.0308L4.65137 14.8374L4.75879 14.644L4.85547 14.4292L4.94141 14.1714L4.99512 13.9243L5.02734 13.6987V13.2905L4.98438 13.0757L4.91992 12.8931L4.82324 12.7104L4.72656 12.5815L4.62988 12.4741L4.51172 12.3667L4.3291 12.2485L4.16797 12.1733L3.95312 12.1089L3.81348 12.0874H3.5127ZM18.2188 13.0005L18.0146 13.0327L17.8428 13.0864L17.6924 13.1509L17.5742 13.2261L17.4346 13.3335L17.3594 13.3979L17.2842 13.4839L17.1875 13.6128L17.1016 13.7632L17.0156 13.978L16.9727 14.1821L16.9619 14.2896V14.4185L16.9834 14.5151L17.0371 14.6226L17.1338 14.73L17.2842 14.8052L17.3271 14.8159H17.499L17.6279 14.7729L17.7246 14.7085L17.7998 14.6118L17.8428 14.5259L17.8643 14.4399L17.8857 14.2681L17.9287 14.1499L18.0039 14.0532L18.0898 13.978L18.1865 13.9351L18.3477 13.9136L18.4766 13.9351L18.6055 13.9995L18.7021 14.0962L18.7666 14.2251L18.7881 14.3218V14.4077L18.7666 14.5151L18.6807 14.687H18.6592V14.7085L18.4658 14.8052L18.208 14.8481L18.1221 14.8804L18.0039 14.9663L17.9287 15.0737L17.8857 15.2134V15.3745L17.9287 15.5034L18.0039 15.6001L18.0791 15.6646L18.1865 15.7183L18.4551 15.7612L18.6055 15.8364L18.6699 15.8901L18.7451 16.0083L18.7881 16.1479V16.2446L18.7559 16.3735L18.6914 16.4917L18.6162 16.5669L18.4873 16.6313L18.4014 16.6528H18.251L18.1436 16.6206L18.0361 16.5562L17.9609 16.4702L17.8965 16.3413L17.875 16.2231L17.8535 16.0835L17.7998 15.9546L17.6924 15.8364L17.5635 15.772L17.4775 15.7505H17.3701L17.2627 15.772L17.1768 15.8149L17.0693 15.9116L17.0049 16.0083L16.9727 16.0942L16.9619 16.1694V16.3091L16.9941 16.5024L17.0264 16.6313L17.123 16.8569L17.1982 16.9751L17.2734 17.0718L17.3701 17.1792L17.4883 17.2866L17.6494 17.394L17.8535 17.4907L18.0469 17.5444L18.1758 17.5659L18.3477 17.5767L18.5732 17.5552L18.7773 17.5015L18.9492 17.4263L19.0996 17.3403L19.2393 17.2329L19.3789 17.0933L19.4756 16.9644L19.5723 16.7925L19.6367 16.6313L19.6797 16.4702L19.7012 16.3091V16.1265L19.6797 15.9438L19.626 15.7397L19.54 15.5464L19.4326 15.3745L19.3682 15.2993L19.3789 15.2349L19.4111 15.2241L19.5186 15.063L19.6045 14.8911L19.6689 14.687L19.7012 14.4614V14.3003L19.6797 14.1177L19.626 13.9136L19.54 13.7202L19.4434 13.5591L19.3252 13.4194L19.25 13.3442L19.1104 13.2368L18.9385 13.1401L18.8203 13.0864L18.6484 13.0327L18.4443 13.0005H18.2188Z" fill="#F48128"/>
<path id="Vector_2" d="M7.7666 2.90283H14.2012L14.3516 2.92432L14.4805 2.98877L14.5771 3.08545L14.6846 3.26807L14.8135 3.53662L14.9424 3.79443L14.9531 3.8374H7.06836L7.04688 3.82666L7.06836 3.76221L7.16504 3.57959L7.2832 3.33252L7.39062 3.12842L7.47656 3.021L7.59473 2.9458L7.68066 2.91357L7.7666 2.90283Z" fill="#F48128"/>
<path id="Vector_3" d="M1.34277 8.40283H5.47852L5.5 8.41357L5.51074 8.45654V9.31592L5.47852 9.3374H0.644531L0.633789 9.30518L0.966797 8.63916L1.04199 8.54248L1.11719 8.47803L1.22461 8.42432L1.34277 8.40283Z" fill="#F48128"/>
<path id="Vector_4" d="M16.5 9.32666H20.7109L20.8398 9.36963L20.9365 9.44482L21.0117 9.53076L21.0977 9.68115L21.3662 10.2183V10.2505H16.5107L16.4893 10.2183V9.34814L16.5 9.32666Z" fill="#F48128"/>
</g>
</svg>
